<svg width="365" height="81" viewBox="0 0 365 81" fill="none" xmlns="http://www.w3.org/2000/svg">
<path d="M71.3188 28.2623C71.1489 27.905 70.911 27.5784 70.6164 27.2978L49.1164 7.54783C48.8109 7.2772 48.4554 7.05873 48.0665 6.90267C47.959 6.85658 47.8443 6.83025 47.7297 6.79404C47.4298 6.70031 47.1177 6.64386 46.8016 6.62617C46.7263 6.61958 46.6583 6.58337 46.583 6.58337H21.4997C17.5473 6.58337 14.333 9.536 14.333 13.1667V65.8334C14.333 69.4641 17.5473 72.4167 21.4997 72.4167H64.4997C68.4521 72.4167 71.6663 69.4641 71.6663 65.8334V29.625C71.6663 29.5559 71.6269 29.4934 71.6198 29.421C71.6022 29.1304 71.5407 28.8434 71.437 28.5684C71.4012 28.4631 71.3689 28.361 71.3188 28.2623ZM59.4328 26.3334H50.1663V17.8211L59.4328 26.3334ZM21.4997 65.8334V13.1667H42.9997V29.625C42.9997 30.498 43.3772 31.3353 44.0492 31.9526C44.7212 32.5699 45.6326 32.9167 46.583 32.9167H64.4997L64.5068 65.8334H21.4997Z" fill="white"/>
<path d="M28.667 39.5H57.3337V46.0834H28.667V39.5ZM28.667 52.6667H57.3337V59.25H28.667V52.6667ZM28.667 26.3334H35.8337V32.9167H28.667V26.3334Z" fill="white"/>
<path d="M81.2273 71V36.0909H93.0227C95.75 36.0909 97.9886 36.5568 99.7386 37.4886C101.489 38.4091 102.784 39.6761 103.625 41.2898C104.466 42.9034 104.886 44.7386 104.886 46.7955C104.886 48.8523 104.466 50.6761 103.625 52.267C102.784 53.858 101.494 55.108 99.7557 56.017C98.017 56.9148 95.7955 57.3636 93.0909 57.3636H83.5455V53.5455H92.9545C94.8182 53.5455 96.3182 53.2727 97.4545 52.7273C98.6023 52.1818 99.4318 51.4091 99.9432 50.4091C100.466 49.3977 100.727 48.1932 100.727 46.7955C100.727 45.3977 100.466 44.1761 99.9432 43.1307C99.4205 42.0852 98.5852 41.2784 97.4375 40.7102C96.2898 40.1307 94.7727 39.8409 92.8864 39.8409H85.4545V71H81.2273ZM97.6591 55.3182L106.25 71H101.341L92.8864 55.3182H97.6591ZM122.081 71.5455C119.558 71.5455 117.382 70.9886 115.553 69.875C113.734 68.75 112.331 67.1818 111.342 65.1705C110.365 63.1477 109.876 60.7955 109.876 58.1136C109.876 55.4318 110.365 53.0682 111.342 51.0227C112.331 48.9659 113.706 47.3636 115.467 46.2159C117.24 45.0568 119.308 44.4773 121.672 44.4773C123.036 44.4773 124.382 44.7045 125.712 45.1591C127.041 45.6136 128.251 46.3523 129.342 47.375C130.433 48.3864 131.303 49.7273 131.95 51.3977C132.598 53.0682 132.922 55.125 132.922 57.5682V59.2727H112.74V55.7955H128.831C128.831 54.3182 128.536 53 127.945 51.8409C127.365 50.6818 126.536 49.767 125.456 49.0966C124.388 48.4261 123.126 48.0909 121.672 48.0909C120.07 48.0909 118.683 48.4886 117.513 49.2841C116.354 50.0682 115.462 51.0909 114.837 52.3523C114.212 53.6136 113.899 54.9659 113.899 56.4091V58.7273C113.899 60.7045 114.24 62.3807 114.922 63.7557C115.615 65.1193 116.575 66.1591 117.803 66.875C119.03 67.5795 120.456 67.9318 122.081 67.9318C123.138 67.9318 124.092 67.7841 124.945 67.4886C125.808 67.1818 126.553 66.7273 127.178 66.125C127.803 65.5114 128.286 64.75 128.626 63.8409L132.513 64.9318C132.104 66.25 131.416 67.4091 130.45 68.4091C129.484 69.3977 128.291 70.1705 126.871 70.7273C125.45 71.2727 123.854 71.5455 122.081 71.5455ZM157.587 50.6818L153.973 51.7045C153.746 51.1023 153.411 50.517 152.967 49.9489C152.536 49.3693 151.945 48.892 151.195 48.517C150.445 48.142 149.484 47.9545 148.314 47.9545C146.712 47.9545 145.376 48.3239 144.308 49.0625C143.251 49.7898 142.723 50.7159 142.723 51.8409C142.723 52.8409 143.087 53.6307 143.814 54.2102C144.541 54.7898 145.678 55.2727 147.223 55.6591L151.109 56.6136C153.45 57.1818 155.195 58.0511 156.342 59.2216C157.49 60.3807 158.064 61.875 158.064 63.7045C158.064 65.2045 157.632 66.5455 156.768 67.7273C155.916 68.9091 154.723 69.8409 153.189 70.5227C151.655 71.2045 149.871 71.5455 147.837 71.5455C145.166 71.5455 142.956 70.9659 141.206 69.8068C139.456 68.6477 138.348 66.9545 137.882 64.7273L141.7 63.7727C142.064 65.1818 142.751 66.2386 143.763 66.9432C144.786 67.6477 146.121 68 147.768 68C149.643 68 151.132 67.6023 152.234 66.8068C153.348 66 153.905 65.0341 153.905 63.9091C153.905 63 153.587 62.2386 152.95 61.625C152.314 61 151.337 60.5341 150.018 60.2273L145.655 59.2045C143.257 58.6364 141.496 57.7557 140.371 56.5625C139.257 55.358 138.7 53.8523 138.7 52.0455C138.7 50.5682 139.115 49.2614 139.945 48.125C140.786 46.9886 141.928 46.0966 143.371 45.4489C144.825 44.8011 146.473 44.4773 148.314 44.4773C150.905 44.4773 152.939 45.0455 154.416 46.1818C155.905 47.3182 156.962 48.8182 157.587 50.6818ZM180.619 60.2955V44.8182H184.642V71H180.619V66.5682H180.347C179.733 67.8977 178.778 69.0284 177.483 69.9602C176.188 70.8807 174.551 71.3409 172.574 71.3409C170.938 71.3409 169.483 70.983 168.21 70.267C166.938 69.5398 165.938 68.4489 165.21 66.9943C164.483 65.5284 164.119 63.6818 164.119 61.4545V44.8182H168.142V61.1818C168.142 63.0909 168.676 64.6136 169.744 65.75C170.824 66.8864 172.199 67.4545 173.869 67.4545C174.869 67.4545 175.886 67.1989 176.92 66.6875C177.966 66.1761 178.841 65.392 179.545 64.3352C180.261 63.2784 180.619 61.9318 180.619 60.2955ZM192.01 71V44.8182H195.896V48.9091H196.237C196.783 47.5114 197.663 46.4261 198.879 45.6534C200.095 44.8693 201.555 44.4773 203.26 44.4773C204.987 44.4773 206.425 44.8693 207.572 45.6534C208.732 46.4261 209.635 47.5114 210.283 48.9091H210.555C211.226 47.5568 212.232 46.483 213.572 45.6875C214.913 44.8807 216.521 44.4773 218.396 44.4773C220.737 44.4773 222.652 45.2102 224.141 46.6761C225.629 48.1307 226.374 50.3977 226.374 53.4773V71H222.351V53.4773C222.351 51.5455 221.822 50.1648 220.766 49.3352C219.709 48.5057 218.464 48.0909 217.033 48.0909C215.192 48.0909 213.766 48.6477 212.754 49.7614C211.743 50.8636 211.237 52.2614 211.237 53.9545V71H207.146V53.0682C207.146 51.5795 206.663 50.3807 205.697 49.4716C204.732 48.5511 203.487 48.0909 201.964 48.0909C200.919 48.0909 199.942 48.3693 199.033 48.9261C198.135 49.483 197.408 50.2557 196.851 51.2443C196.305 52.2216 196.033 53.3523 196.033 54.6364V71H192.01ZM244.706 71.5455C242.183 71.5455 240.007 70.9886 238.178 69.875C236.359 68.75 234.956 67.1818 233.967 65.1705C232.99 63.1477 232.501 60.7955 232.501 58.1136C232.501 55.4318 232.99 53.0682 233.967 51.0227C234.956 48.9659 236.331 47.3636 238.092 46.2159C239.865 45.0568 241.933 44.4773 244.297 44.4773C245.661 44.4773 247.007 44.7045 248.337 45.1591C249.666 45.6136 250.876 46.3523 251.967 47.375C253.058 48.3864 253.928 49.7273 254.575 51.3977C255.223 53.0682 255.547 55.125 255.547 57.5682V59.2727H235.365V55.7955H251.456C251.456 54.3182 251.161 53 250.57 51.8409C249.99 50.6818 249.161 49.767 248.081 49.0966C247.013 48.4261 245.751 48.0909 244.297 48.0909C242.695 48.0909 241.308 48.4886 240.138 49.2841C238.979 50.0682 238.087 51.0909 237.462 52.3523C236.837 53.6136 236.524 54.9659 236.524 56.4091V58.7273C236.524 60.7045 236.865 62.3807 237.547 63.7557C238.24 65.1193 239.2 66.1591 240.428 66.875C241.655 67.5795 243.081 67.9318 244.706 67.9318C245.763 67.9318 246.717 67.7841 247.57 67.4886C248.433 67.1818 249.178 66.7273 249.803 66.125C250.428 65.5114 250.911 64.75 251.251 63.8409L255.138 64.9318C254.729 66.25 254.041 67.4091 253.075 68.4091C252.109 69.3977 250.916 70.1705 249.496 70.7273C248.075 71.2727 246.479 71.5455 244.706 71.5455ZM285.121 36.0909H289.348V59.2045C289.348 61.5909 288.786 63.7216 287.661 65.5966C286.547 67.4602 284.973 68.9318 282.939 70.0114C280.905 71.0795 278.518 71.6136 275.78 71.6136C273.041 71.6136 270.655 71.0795 268.621 70.0114C266.587 68.9318 265.007 67.4602 263.882 65.5966C262.768 63.7216 262.212 61.5909 262.212 59.2045V36.0909H266.439V58.8636C266.439 60.5682 266.814 62.0852 267.564 63.4148C268.314 64.733 269.382 65.7727 270.768 66.5341C272.166 67.2841 273.837 67.6591 275.78 67.6591C277.723 67.6591 279.393 67.2841 280.791 66.5341C282.189 65.7727 283.257 64.733 283.996 63.4148C284.746 62.0852 285.121 60.5682 285.121 58.8636V36.0909ZM297.244 80.8182V44.8182H301.131V48.9773H301.608C301.903 48.5227 302.313 47.9432 302.835 47.2386C303.369 46.5227 304.131 45.8864 305.119 45.3295C306.119 44.7614 307.472 44.4773 309.176 44.4773C311.381 44.4773 313.324 45.0284 315.006 46.1307C316.688 47.233 318 48.7955 318.943 50.8182C319.886 52.8409 320.358 55.2273 320.358 57.9773C320.358 60.75 319.886 63.1534 318.943 65.1875C318 67.2102 316.693 68.7784 315.023 69.892C313.352 70.9943 311.426 71.5455 309.244 71.5455C307.563 71.5455 306.216 71.267 305.205 70.7102C304.193 70.142 303.415 69.5 302.869 68.7841C302.324 68.0568 301.903 67.4545 301.608 66.9773H301.267V80.8182H297.244ZM301.199 57.9091C301.199 59.8864 301.489 61.6307 302.068 63.142C302.648 64.642 303.494 65.8182 304.608 66.6705C305.722 67.5114 307.085 67.9318 308.699 67.9318C310.381 67.9318 311.784 67.4886 312.909 66.6023C314.045 65.7045 314.898 64.5 315.466 62.9886C316.045 61.4659 316.335 59.7727 316.335 57.9091C316.335 56.0682 316.051 54.4091 315.483 52.9318C314.926 51.4432 314.08 50.267 312.943 49.4034C311.818 48.5284 310.403 48.0909 308.699 48.0909C307.063 48.0909 305.688 48.5057 304.574 49.3352C303.46 50.1534 302.619 51.3011 302.051 52.7784C301.483 54.2443 301.199 55.9545 301.199 57.9091Z" fill="white"/>
</svg>
