<svg width="86" height="79" viewBox="0 0 86 79" fill="none" xmlns="http://www.w3.org/2000/svg">
<path d="M71.3188 28.2623C71.1489 27.905 70.911 27.5784 70.6164 27.2978L49.1164 7.54783C48.8109 7.2772 48.4554 7.05873 48.0665 6.90267C47.959 6.85658 47.8443 6.83025 47.7297 6.79404C47.4298 6.70031 47.1177 6.64386 46.8016 6.62617C46.7263 6.61958 46.6583 6.58337 46.583 6.58337H21.4997C17.5473 6.58337 14.333 9.536 14.333 13.1667V65.8334C14.333 69.4641 17.5473 72.4167 21.4997 72.4167H64.4997C68.4521 72.4167 71.6663 69.4641 71.6663 65.8334V29.625C71.6663 29.5559 71.6269 29.4934 71.6198 29.421C71.6022 29.1304 71.5407 28.8434 71.437 28.5684C71.4012 28.4631 71.3689 28.361 71.3188 28.2623ZM59.4328 26.3334H50.1663V17.8211L59.4328 26.3334ZM21.4997 65.8334V13.1667H42.9997V29.625C42.9997 30.498 43.3772 31.3353 44.0492 31.9526C44.7212 32.5699 45.6326 32.9167 46.583 32.9167H64.4997L64.5068 65.8334H21.4997Z" fill="#766DF6"/>
<path d="M28.667 39.5H57.3337V46.0834H28.667V39.5ZM28.667 52.6667H57.3337V59.25H28.667V52.6667ZM28.667 26.3334H35.8337V32.9167H28.667V26.3334Z" fill="#766DF6"/>
</svg>
